<svg xmlns="http://www.w3.org/2000/svg" height="160" width="160" viewBox="0 0 25 25" role="img"><path fill="#fff" d="M0,0 h25v25H0z" shape-rendering="crispEdges"/><path fill="rgba(0, 0, 0, 0.88)" d="M0 0h7v1H0zM8 0h1v1H8zM10 0h3v1H10zM14 0h2v1H14zM18,0 h7v1H18zM0 1h1v1H0zM6 1h1v1H6zM8 1h1v1H8zM12 1h4v1H12zM18 1h1v1H18zM24,1 h1v1H24zM0 2h1v1H0zM2 2h3v1H2zM6 2h1v1H6zM8 2h2v1H8zM11 2h2v1H11zM14 2h2v1H14zM18 2h1v1H18zM20 2h3v1H20zM24,2 h1v1H24zM0 3h1v1H0zM2 3h3v1H2zM6 3h1v1H6zM8 3h1v1H8zM14 3h1v1H14zM18 3h1v1H18zM20 3h3v1H20zM24,3 h1v1H24zM0 4h1v1H0zM2 4h3v1H2zM6 4h1v1H6zM8 4h4v1H8zM13 4h4v1H13zM18 4h1v1H18zM20 4h3v1H20zM24,4 h1v1H24zM0 5h1v1H0zM6 5h1v1H6zM9 5h3v1H9zM14 5h3v1H14zM18 5h1v1H18zM24,5 h1v1H24zM0 6h7v1H0zM8 6h1v1H8zM10 6h1v1H10zM12 6h1v1H12zM14 6h1v1H14zM16 6h1v1H16zM18,6 h7v1H18zM8 7h4v1H8zM13 7h4v1H13zM1 8h2v1H1zM4 8h1v1H4zM6 8h2v1H6zM9 8h2v1H9zM14 8h3v1H14zM18 8h1v1H18zM20,8 h5v1H20zM0 9h2v1H0zM3 9h3v1H3zM7 9h1v1H7zM16 9h3v1H16zM24,9 h1v1H24zM0 10h2v1H0zM3 10h5v1H3zM9 10h2v1H9zM12 10h2v1H12zM17 10h1v1H17zM19 10h1v1H19zM22,10 h3v1H22zM0 11h2v1H0zM4 11h2v1H4zM7 11h1v1H7zM9 11h3v1H9zM16 11h1v1H16zM18 11h1v1H18zM23 11h1v1H23zM1 12h1v1H1zM3 12h2v1H3zM6 12h3v1H6zM12 12h1v1H12zM15 12h4v1H15zM21 12h1v1H21zM23,12 h2v1H23zM1 13h1v1H1zM4 13h2v1H4zM7 13h1v1H7zM9 13h2v1H9zM13 13h1v1H13zM16 13h1v1H16zM18 13h1v1H18zM21 13h1v1H21zM24,13 h1v1H24zM0 14h1v1H0zM3 14h8v1H3zM12 14h1v1H12zM14 14h1v1H14zM18 14h2v1H18zM22,14 h3v1H22zM1 15h1v1H1zM3 15h1v1H3zM5 15h1v1H5zM9 15h4v1H9zM20 15h1v1H20zM23 15h1v1H23zM0 16h1v1H0zM3 16h1v1H3zM5 16h3v1H5zM12 16h1v1H12zM14 16h1v1H14zM16 16h6v1H16zM8 17h3v1H8zM15 17h2v1H15zM20 17h2v1H20zM23,17 h2v1H23zM0 18h7v1H0zM8 18h1v1H8zM10 18h1v1H10zM13 18h4v1H13zM18 18h1v1H18zM20 18h2v1H20zM23,18 h2v1H23zM0 19h1v1H0zM6 19h1v1H6zM9 19h1v1H9zM11 19h1v1H11zM13 19h1v1H13zM16 19h1v1H16zM20 19h2v1H20zM24,19 h1v1H24zM0 20h1v1H0zM2 20h3v1H2zM6 20h1v1H6zM8 20h7v1H8zM16 20h6v1H16zM24,20 h1v1H24zM0 21h1v1H0zM2 21h3v1H2zM6 21h1v1H6zM9 21h1v1H9zM11 21h2v1H11zM15 21h2v1H15zM19 21h4v1H19zM0 22h1v1H0zM2 22h3v1H2zM6 22h1v1H6zM8 22h3v1H8zM13 22h3v1H13zM17 22h1v1H17zM20 22h1v1H20zM24,22 h1v1H24zM0 23h1v1H0zM6 23h1v1H6zM8 23h2v1H8zM11 23h1v1H11zM13 23h5v1H13zM20 23h2v1H20zM23 23h1v1H23zM0 24h7v1H0zM9 24h1v1H9zM12 24h2v1H12zM16 24h1v1H16zM19 24h1v1H19zM23,24 h2v1H23z" shape-rendering="crispEdges"/></svg>